<svg width="109" height="51" viewBox="0 0 109 51" fill="none" xmlns="http://www.w3.org/2000/svg">
<path d="M91.3736 13.7047C91.2749 13.1283 91.2266 12.5439 91.1428 11.9655C90.8024 9.62806 90.4898 7.28767 90.1001 4.95715C89.9275 3.92367 89.3603 3.5387 88.3423 3.55055C88.2149 3.54215 88.087 3.54215 87.9596 3.55055C82.7976 4.2652 77.6327 4.97196 72.4727 5.70833C71.4685 5.85146 70.8767 6.63619 70.9408 7.6598C70.9842 8.34287 71.0956 9.02298 71.1844 9.70506C71.3255 10.779 71.3353 10.8215 70.2966 11.0179C68.671 11.3249 67.509 12.154 66.637 13.5932C64.9985 16.2939 63.4538 19.04 61.9732 21.8285C61.7039 22.3378 61.7572 22.707 62.1133 23.1364C63.7201 25.077 65.3191 27.0265 66.8925 28.9938C67.219 29.4015 67.5445 29.4873 68.0131 29.3403C69.3576 28.9109 70.6261 28.3463 71.7299 27.448C73.4206 26.071 74.4919 24.241 75.3037 22.2875C76.3227 19.8306 77.7096 17.812 80.1925 16.5959C81.3485 16.0303 82.0578 14.9643 81.9966 13.5458C81.9443 12.3189 81.1088 11.6388 79.9034 11.9043C78.4139 12.233 77.1049 12.9536 76.1452 14.1065C74.482 16.1054 72.2527 17.0678 69.8873 17.8476C69.6377 17.9285 69.2639 18.0914 69.1425 17.7706C69.0113 17.4152 69.4158 17.3609 69.6653 17.2672C70.5679 16.9236 71.4665 16.5683 72.378 16.2554C72.889 16.0807 73.0192 15.7766 72.9373 15.2683C72.7627 14.1904 72.6739 13.0967 72.4638 12.0277C72.3277 11.3367 72.5181 11.0919 73.2165 10.9952C78.5057 10.2713 83.7916 9.52672 89.0742 8.7614C89.5615 8.6923 89.7647 8.81964 89.8239 9.32404C90.0034 10.8372 90.2422 12.3455 90.4158 13.8587C90.5144 14.6997 90.2688 14.985 89.3889 15.1242C88.2594 15.3019 87.13 15.5032 85.9926 15.598C83.5266 15.8033 81.2124 16.289 79.207 17.9127C78.1752 18.7468 77.2046 19.5562 76.6887 20.799C76.5999 21.0161 76.3355 21.252 76.5693 21.484C76.736 21.6498 77.0093 21.5551 77.2312 21.5057C79.1468 21.0704 80.3819 19.7833 80.6975 17.8643C80.7587 17.4863 80.8603 17.3155 81.2894 17.2573C84.0602 16.8802 86.8232 16.4449 89.5931 16.058C90.9879 15.8704 91.6005 15.0847 91.3736 13.7047ZM72.1935 7.94606C72.1472 7.45252 72.1432 7.07347 72.739 6.98266C73.5666 6.85533 74.3943 6.72009 75.2228 6.59967C79.0147 6.0469 82.8071 5.49742 86.6003 4.95123C87.1014 4.8772 87.6064 4.82192 88.0681 4.76566C88.2134 4.76013 88.3581 4.78802 88.491 4.84716C88.6239 4.90631 88.7415 4.99514 88.8348 5.10685C88.928 5.21856 88.9944 5.35016 89.0289 5.49156C89.0634 5.63296 89.0651 5.78039 89.0338 5.92253C88.9766 6.19496 88.7901 6.11994 88.6293 6.13969C83.3954 6.86355 78.1621 7.5917 72.9294 8.32412C72.5753 8.37347 72.2488 8.53437 72.1935 7.94606Z" fill="#DF4309"/>
<path d="M16.2948 39.0266C14.5067 34.4123 12.7203 29.7979 10.9355 25.1836C10.5153 24.0978 9.87511 23.5302 8.97352 23.5411C7.88845 23.5539 7.35775 24.2627 7.00067 25.1698C5.98465 27.7698 4.96863 30.3691 3.95261 32.9678C3.06483 35.2381 2.16422 37.4966 1.33267 39.7787C0.877923 41.0314 2.02316 42.5742 3.24238 42.2771C4.6727 41.9276 6.10302 41.8615 7.54813 41.8151C9.80705 41.7421 12.0748 41.6759 14.2963 42.2376C15.5066 42.5426 16.6528 41.6236 16.644 40.3365C16.644 39.8784 16.4585 39.451 16.2948 39.0266ZM8.92419 35.7948C7.74048 35.7948 6.831 34.8857 6.83889 33.7279C6.84006 33.4536 6.8952 33.1822 7.00117 32.9292C7.10714 32.6763 7.26187 32.4467 7.45651 32.2536C7.65116 32.0604 7.88191 31.9076 8.1356 31.8037C8.38929 31.6998 8.66094 31.6469 8.93505 31.6481C10.1059 31.653 10.9937 32.5532 10.9917 33.7368C10.9898 34.9203 10.1109 35.8018 8.92419 35.7948Z" fill="#DF4309"/>
<path d="M28.8036 33.1188C28.3725 30.1852 25.868 28.3433 22.8851 28.6098C20.4594 28.828 18.3889 31.2621 18.3554 33.952C18.3416 35.0456 18.3554 36.1403 18.3554 37.235C18.3554 38.4817 18.3327 39.7304 18.3633 40.9771C18.383 41.8329 18.967 42.3639 19.7788 42.3511C20.5423 42.3393 21.0612 41.7993 21.0769 40.9692C21.0898 40.3078 21.0878 39.6455 21.0769 38.9841C21.0769 38.6239 21.1489 38.4393 21.5573 38.6327C21.7923 38.733 22.0378 38.8065 22.2893 38.8519C26.2754 39.7639 29.2909 36.4621 28.8036 33.1188ZM23.6229 35.7968C22.4392 35.8087 21.5248 34.9302 21.5169 33.7634C21.5084 33.4874 21.5549 33.2124 21.6536 32.9544C21.7524 32.6965 21.9015 32.4609 22.0922 32.2612C22.2828 32.0615 22.5113 31.9018 22.7643 31.7913C23.0173 31.6809 23.2897 31.6219 23.5657 31.6178C23.8417 31.6138 24.1157 31.6647 24.3718 31.7677C24.6279 31.8706 24.861 32.0236 25.0575 32.2176C25.2539 32.4116 25.4099 32.6427 25.5162 32.8976C25.6225 33.1525 25.677 33.426 25.6766 33.7022C25.6841 33.9761 25.6363 34.2486 25.5361 34.5036C25.436 34.7585 25.2856 34.9907 25.0938 35.1862C24.902 35.3817 24.6728 35.5365 24.42 35.6414C24.1671 35.7463 23.8957 35.7992 23.6219 35.7968H23.6229Z" fill="#DF4309"/>
<path d="M84.9233 28.9809C84.3255 26.7037 82.0726 25.0464 79.8353 25.1313C78.6427 25.1686 77.4975 25.6071 76.5847 26.376C75.6719 27.1449 75.0447 28.1993 74.8046 29.3689C74.5086 30.8288 74.7641 32.3104 74.6714 33.6045C74.6714 35.0002 74.6606 36.2213 74.6714 37.4413C74.6823 38.3721 75.2702 38.9979 76.0919 38.997C76.9136 38.996 77.4147 38.4383 77.4433 37.4897C77.459 37.008 77.4482 36.5233 77.4511 36.0396C77.4511 35.0752 77.4511 35.0752 78.3942 35.3605C80.3907 35.9695 82.1288 35.4464 83.5798 34.0368C85.018 32.6421 85.4244 30.886 84.9233 28.9809ZM79.9113 32.4358C78.696 32.4407 77.8161 31.5869 77.8151 30.4014C77.8119 30.1275 77.8626 29.8556 77.9643 29.6013C78.0661 29.347 78.2169 29.1152 78.4081 28.9193C78.5994 28.7233 78.8274 28.5669 79.079 28.4591C79.3307 28.3513 79.6011 28.2942 79.8748 28.291C80.9983 28.2781 81.9818 29.2435 81.9867 30.3639C81.9927 31.5444 81.1009 32.4348 79.9113 32.4407V32.4358Z" fill="#DF4309"/>
<path d="M96.5217 35.4287C96.5217 34.717 96.5622 34.0023 96.5138 33.2926C96.3166 30.2849 93.2892 28.0008 90.3517 28.6533C88.1934 29.135 86.7897 30.4695 86.2639 32.6224C85.7707 34.641 86.4099 36.3733 87.9408 37.7108C89.5862 39.1451 91.492 39.381 93.5033 38.536C93.816 38.4057 94.0261 38.3386 94.3023 38.6298C94.684 39.0335 95.1999 39.1234 95.7119 38.8953C96.2712 38.6486 96.5671 38.1925 96.5691 37.5667V35.4287H96.5217ZM91.3371 35.86C90.7852 35.8531 90.2574 35.6329 89.8642 35.2454C89.4709 34.8579 89.2426 34.3333 89.2271 33.7812C89.2143 32.6579 90.18 31.6748 91.2986 31.6669C91.8543 31.6622 92.3891 31.8785 92.7853 32.2684C93.1816 32.6582 93.4068 33.1896 93.4115 33.7457C93.4162 34.3017 93.2 34.8369 92.8104 35.2334C92.4208 35.6299 91.8898 35.8553 91.3341 35.86H91.3371Z" fill="#DF4309"/>
<path d="M48.7403 32.0666C48.7403 30.3096 48.7304 28.5526 48.7403 26.7965C48.7462 25.9081 49.2414 25.2922 49.9693 25.2083C50.8887 25.1017 51.5417 25.7018 51.5476 26.7225C51.5644 28.2752 51.5476 29.8279 51.5575 31.3816C51.5575 31.5681 51.446 31.8396 51.6857 31.9254C51.9067 32.0044 52.027 31.7507 52.1651 31.6135C53.0529 30.736 53.9279 29.8456 54.8186 28.9701C55.5249 28.2791 56.2982 28.2189 56.9069 28.7944C57.5461 29.4015 57.5115 30.1961 56.7993 30.9364C56.2874 31.4694 55.7774 32.0054 55.2349 32.5068C54.9094 32.803 54.8955 33.0645 55.1214 33.4298C55.8198 34.5551 56.4936 35.6942 57.1712 36.8313C57.5066 37.3939 57.478 37.9576 57.0844 38.4738C56.7471 38.917 56.2756 39.0828 55.7261 38.9723C55.2329 38.8736 54.937 38.5222 54.6992 38.1214C54.1715 37.2508 53.6339 36.3851 53.1308 35.5007C52.8793 35.0575 52.6879 35.0891 52.3249 35.4069C51.7449 35.9143 51.4894 36.472 51.5358 37.2646C51.5999 38.3228 50.9952 38.992 50.138 38.992C49.2808 38.992 48.7363 38.3376 48.7324 37.2607C48.7353 35.5293 48.7403 33.798 48.7403 32.0666Z" fill="#DF4309"/>
<path d="M42.2032 28.5566C39.2884 28.5684 36.845 30.9256 36.844 33.7812C36.8471 35.1571 37.3937 36.4759 38.3645 37.4502C39.3354 38.4245 40.6517 38.9752 42.0267 38.9822C44.9633 38.9871 47.2498 36.7119 47.2547 33.7862C47.4293 31.0164 44.8054 28.5457 42.2032 28.5566ZM42.078 35.8057C40.8874 35.8057 39.9877 34.9174 39.9917 33.7467C39.9891 33.472 40.041 33.1995 40.1446 32.9451C40.2481 32.6906 40.4012 32.4593 40.5948 32.2646C40.7885 32.0699 41.0189 31.9157 41.2727 31.8108C41.5265 31.706 41.7985 31.6527 42.073 31.654C42.6259 31.6571 43.1555 31.8773 43.5477 32.2672C43.9399 32.6571 44.1635 33.1856 44.1702 33.7388C44.1706 34.0126 44.1166 34.2837 44.0112 34.5365C43.9059 34.7892 43.7514 35.0184 43.5567 35.2107C43.362 35.4031 43.1309 35.5548 42.8771 35.6569C42.6232 35.7591 42.3516 35.8097 42.078 35.8057Z" fill="#DF4309"/>
<path d="M63.1766 28.5624C60.2923 28.598 57.9278 30.9798 57.9486 33.8295C57.9712 36.7217 60.316 39.0039 63.2526 38.9792C66.0915 38.9565 68.3918 36.5371 68.3504 33.6203C68.3129 30.8959 65.8932 28.5318 63.1766 28.5624ZM63.0977 35.8047C62.8311 35.8052 62.567 35.7531 62.3205 35.6513C62.0741 35.5496 61.8501 35.4002 61.6614 35.2116C61.4728 35.0231 61.3231 34.7992 61.221 34.5527C61.119 34.3063 61.0665 34.0421 61.0666 33.7753C61.0614 33.4956 61.1126 33.2177 61.2172 32.9582C61.3218 32.6988 61.4776 32.4632 61.6754 32.2654C61.8731 32.0676 62.1087 31.9118 62.368 31.8073C62.6273 31.7027 62.905 31.6516 63.1845 31.657C64.3465 31.6846 65.1939 32.5868 65.186 33.7861C65.1791 34.9667 64.3021 35.8116 63.0977 35.8047Z" fill="#DF4309"/>
<path d="M107.64 29.4933C107.558 28.6641 106.373 28.2989 105.606 28.7668C105.28 28.9642 104.98 29.1616 104.585 29.2455C103.572 29.4548 102.556 29.3926 101.545 29.3353C101.034 29.3247 100.536 29.173 100.106 28.8971C98.9937 28.1419 97.8593 28.6996 97.8031 30.0352C97.7811 30.8482 97.8035 31.6618 97.8702 32.4723C97.9688 33.9411 98.6337 35.2628 99.8963 35.8659C101.269 36.5204 101.42 37.4453 101.283 38.6801C101.273 38.7788 101.283 38.8835 101.283 38.9851C101.283 39.4945 101.283 40.0018 101.283 40.5112C101.283 41.7115 101.786 42.3511 102.727 42.3511C103.668 42.3511 104.122 41.75 104.125 40.4914C104.125 39.4224 104.144 38.3534 104.119 37.2863C104.108 36.8412 104.25 36.622 104.684 36.4503C105.977 35.939 106.874 35.0072 107.385 33.7091C107.923 32.3321 107.777 30.8959 107.64 29.4933ZM102.757 34.6745C102.206 34.6657 101.68 34.4435 101.29 34.0548C100.899 33.666 100.674 33.1409 100.663 32.5898C100.655 31.4813 101.612 30.4952 102.727 30.4596C103.843 30.4241 104.875 31.4714 104.865 32.5987C104.855 33.7259 103.871 34.6893 102.757 34.6745Z" fill="#DF4309"/>
<path d="M29.8335 35.7978C29.8266 34.0329 29.718 32.421 30.6986 31.0025C31.7382 29.4982 33.1669 28.7016 34.9846 28.6128C35.7224 28.5772 36.2581 29.0491 36.3725 29.744C36.4928 30.4804 36.1634 30.9838 35.3762 31.2088C35.0369 31.3075 34.6719 31.3125 34.3355 31.4132C33.2396 31.7399 32.5994 32.6628 32.5728 33.9796C32.5491 35.173 32.5728 36.3683 32.559 37.5617C32.5481 38.4175 32.1239 38.922 31.3979 38.9911C30.5792 39.069 30.1018 38.6949 29.9025 37.8292C29.7358 37.1008 29.8887 36.3614 29.8335 35.7978Z" fill="#DF4309"/>
<path d="M79.6489 20.9964C79.3037 22.4938 77.2568 23.7079 75.9252 23.3822C75.794 23.3496 75.6361 23.318 75.6983 23.169C75.8472 22.8156 75.8255 22.2174 76.297 22.2125C77.5163 22.1997 78.5402 21.7081 79.6489 20.9964Z" fill="#DF4309"/>
<path d="M78.9476 23.244C78.4761 24.4414 77.6031 24.8076 76.5752 24.9221C76.2212 24.9561 75.8648 24.9561 75.5109 24.9221C75.2721 24.9023 74.848 25.0553 74.8815 24.6259C74.9081 24.2953 75.1035 23.9656 75.5819 23.9814C76.084 23.9982 76.5861 24.0159 77.0941 23.9044C77.6899 23.781 78.2324 23.5204 78.9476 23.244Z" fill="#DF4309"/>
<path d="M87.7277 4.36691C86.1998 4.61368 84.6698 4.83282 83.1349 5.05787C79.6174 5.56853 76.0994 6.07425 72.5812 6.57503C71.9696 6.66189 71.7181 7.03995 71.7072 7.62036C71.7072 8.70616 71.8858 8.88877 72.7923 8.76835C75.5878 8.39523 78.3843 8.03691 81.1769 7.65589C83.7455 7.30646 86.3103 6.94256 88.871 6.56417C89.1137 6.52864 89.4323 6.54246 89.4964 6.13972C89.6957 4.92758 88.9341 4.17147 87.7277 4.36691ZM89.0338 5.92256C88.9766 6.195 88.7901 6.11998 88.6293 6.13972C83.3954 6.86359 78.1621 7.59173 72.9294 8.32415C72.5753 8.37252 72.2488 8.53342 72.1935 7.94511C72.1472 7.45157 72.1432 7.07252 72.739 6.98171C73.5666 6.85438 74.3942 6.71915 75.2228 6.59872C79.0147 6.04595 82.8071 5.49647 86.6003 4.95028C87.1014 4.87625 87.6064 4.82097 88.0681 4.76471C88.2135 4.75915 88.3583 4.78704 88.4913 4.84624C88.6243 4.90544 88.7419 4.99437 88.8352 5.1062C88.9285 5.21803 88.9949 5.34977 89.0293 5.49129C89.0637 5.63282 89.0653 5.78035 89.0338 5.92256Z" fill="#DF4309"/>
</svg>
